<?xml version="1.0" standalone="no"?>
<!DOCTYPE svg PUBLIC "-//W3C//DTD SVG 1.1//EN" "http://www.w3.org/Graphics/SVG/1.1/DTD/svg11.dtd" >
<!--
2013-9-30: Created.
-->
<svg>
<metadata>
Created by iconfont
</metadata>
<defs>

<font id="iconfont" horiz-adv-x="1024" >
  <font-face
    font-family="iconfont"
    font-weight="500"
    font-stretch="normal"
    units-per-em="1024"
    ascent="896"
    descent="-128"
  />
    <missing-glyph />
    
    <glyph glyph-name="baiduKafka" unicode="&#58961;" d="M736 192c-32 0-64-12.8-89.6-25.6L492.8 320c6.4 19.2 12.8 38.4 12.8 64s-6.4 44.8-12.8 64l160 160c19.2-19.2 51.2-32 83.2-32C825.6 576 896 646.4 896 736S825.6 896 736 896 576 825.6 576 736c0-32 12.8-64 25.6-89.6L460.8 505.6c-32 38.4-70.4 64-115.2 70.4V646.4c57.6 12.8 96 64 96 121.6 0 70.4-57.6 128-128 128s-128-57.6-128-128c0-57.6 38.4-108.8 96-121.6V576c-96-19.2-166.4-96-166.4-192s70.4-172.8 160-185.6V128c-57.6-12.8-96-64-96-121.6 0-70.4 57.6-128 128-128s128 57.6 128 128c0 57.6-38.4 108.8-96 121.6v70.4c44.8 6.4 89.6 32 115.2 70.4l147.2-147.2c-12.8-25.6-25.6-57.6-25.6-89.6 0-89.6 70.4-160 160-160s160 70.4 160 160-70.4 160-160 160z m0 640c51.2 0 96-44.8 96-96S787.2 640 736 640 640 684.8 640 736 684.8 832 736 832zM243.2 768c0 38.4 25.6 64 64 64s64-25.6 64-64-25.6-64-64-64-64 25.6-64 64z m128-768c0-38.4-25.6-64-64-64s-64 25.6-64 64 25.6 64 64 64 64-25.6 64-64z m-64 256c-70.4 0-128 57.6-128 128s57.6 128 128 128 128-57.6 128-128-57.6-128-128-128z m428.8-320c-51.2 0-96 44.8-96 96s44.8 96 96 96 96-44.8 96-96-44.8-96-96-96z"  horiz-adv-x="1024" />

    
    <glyph glyph-name="shanchu" unicode="&#58893;" d="M515.7888 445.6448L920.576 850.3296a51.2 51.2 0 0 0 72.3968-72.3968l-398.2336-398.336 398.336-398.2336a51.2 51.2 0 0 0-72.4992-72.3968L515.7888 313.6512 111.2064-91.0336a51.2 51.2 0 0 0-72.3968 72.3968l398.2336 398.336-398.336 398.2336a51.2 51.2 0 1 0 72.4992 72.3968l404.5824-404.6848z"  horiz-adv-x="1024" />

    
    <glyph glyph-name="xitongziyuanjiankong" unicode="&#59059;" d="M928 34.6H96c-17.7 0-32 14.3-32 32s14.3 32 32 32h832c17.7 0 32-14.3 32-32s-14.3-32-32-32zM833.2 738.2H190.1c-34.2 0-62-27.8-62-62v-447c0-34.2 27.8-62 62-62h643.2c34.2 0 62 27.8 62 62v447c-0.1 34.2-27.8 62-62.1 62z m-2-507H192.1V390.9h119.2l59.9 87.7 143.6-213.2 126.8 253.1 60.9-127.6h128.9v-159.7z m0 207.7h-98.6l-90.1 188.8-133.9-267.3-137.2 203.8-85.5-125.3h-93.8V674.2h639.2v-235.3z"  horiz-adv-x="1024" />

    
    <glyph glyph-name="peizhiduankou" unicode="&#58911;" d="M933.91872-101.38112H90.28096C40.57088-101.38112 0-60.92288 0-11.09504V497.6896c0 49.82784 40.45824 90.28096 90.28096 90.28096h23.31136v55.6544c0 54.74304 44.5696 99.31264 99.31264 99.31264h81.024v45.71136c0 47.88224 38.96832 86.85568 86.73792 86.85568h262.27712c47.88224 0 86.74304-38.96832 86.74304-86.85568v-45.71136h81.59744c54.74304 0 99.31264-44.5696 99.31264-99.31264v-55.6544h23.31136c49.7152 0 90.28096-40.45824 90.28096-90.28096v-508.78464c0.01024-49.82784-40.56064-90.28608-90.27072-90.28608zM90.28096 522.8288a25.22112 25.22112 0 0 1-25.14432-25.14432v-508.78464a25.22112 25.22112 0 0 1 25.14432-25.14432h843.63264a25.22112 25.22112 0 0 1 25.14432 25.14432V497.6896a25.22112 25.22112 0 0 1-25.14432 25.14432H878.0288c-17.94048 0-32.56832 14.62784-32.56832 32.56832V643.63008c0 18.85696-15.31392 34.28352-34.28352 34.28352h-113.94048c-17.94048 0-32.56832 14.62784-32.56832 32.56832v78.2848c0 11.77088-9.94304 21.71392-21.71392 21.71392H380.67712a21.70368 21.70368 0 0 1-21.71392-21.71392v-78.2848c0-17.94048-14.62784-32.56832-32.56832-32.56832H212.79232a34.23744 34.23744 0 0 1-34.28352-34.28352v-88.22784c0-17.94048-14.62784-32.56832-32.56832-32.56832l-55.65952-0.00512zM788.77696 380.43648h98.9696v-310.62016h-98.9696v310.62016z m-160.22528 0h98.9696v-310.62016h-98.9696v310.62016z m-160.10752 0h98.9696v-310.62016h-98.9696v310.62016z m-160.22528 0h98.9696v-310.62016h-98.9696v310.62016z m-160.10752 0h98.9696v-310.62016h-98.9696v310.62016z"  horiz-adv-x="1024" />

    
    <glyph glyph-name="fangwendaili-" unicode="&#58916;" d="M509.44-122.87488c-281.35424 0-509.44 228.08576-509.44 509.44s228.08576 509.44 509.44 509.44 509.44-228.08576 509.44-509.44-228.08576-509.44-509.44-509.44z m0 72.7808c241.14688 0 436.66432 195.51744 436.66432 436.66432S750.58688 823.22944 509.44 823.22944 72.77568 627.712 72.77568 386.56512s195.51744-436.6592 436.66432-436.6592zM432.26112 463.74912l-77.21472-231.5776 231.5776 77.21472 51.49184-51.49184-385.9712-128.59904 128.63488 385.9712 51.49184-51.49184-0.01024-0.0256z m0 0L380.76928 515.23584l385.9712 128.59904-128.63488-385.9712-51.49184 51.49184 77.21472 231.5776-231.5776-77.21472v0.03072zM473.05216 386.56512a36.38784 36.38784 0 0 1 72.77568-0.07168v0.07168a36.39296 36.39296 0 0 1-72.7808 0.01536l0.00512-0.01536z"  horiz-adv-x="1024" />

    
    <glyph glyph-name="icon-test" unicode="&#58915;" d="M1364.877005 734.459893L639.315508 8.898396l-134.160428-136.898396L28.748663 345.668449c-38.331551 38.331551-38.331551 98.566845 0 134.160428 38.331551 38.331551 98.566845 38.331551 136.898396 0l339.508021-339.508021 725.561498 725.561497c38.331551 38.331551 98.566845 38.331551 136.898395 0s35.593583-95.828877-2.737968-131.42246z"  horiz-adv-x="1395" />

    
    <glyph glyph-name="jingjiyewu" unicode="&#58910;" d="M835.584 209.92c-8.192 0-16.384-4.096-22.528-8.192l-163.84-96.256c-2.048 38.912-30.72 61.44-75.776 61.44h-71.68c-12.288 0-32.768 6.144-49.152 12.288-20.48 6.144-38.912 14.336-55.296 14.336h-18.432c-30.72 0-55.296-10.24-75.776-18.432-12.288-4.096-24.576-10.24-30.72-10.24h-4.096v16.384c0 20.48-16.384 36.864-36.864 36.864H143.36c-20.48 0-36.864-16.384-36.864-36.864v-219.136c0-20.48 16.384-38.912 36.864-38.912h88.064c16.384 0 28.672 12.288 34.816 26.624h385.024c8.192 0 16.384 2.048 24.576 4.096 4.096 0 8.192 2.048 12.288 4.096l196.608 124.928c28.672 16.384 36.864 57.344 20.48 86.016l-8.192 10.24c-12.288 22.528-36.864 34.816-61.44 30.72zM172.032-21.504c-4.096 0-10.24 6.144-10.24 12.288v165.888c0 6.144 4.096 10.24 10.24 10.24h34.816c6.144 0 8.192-4.096 8.192-10.24v-165.888c0-6.144-4.096-12.288-8.192-12.288H172.032z m677.888 143.36l-178.176-110.592c-2.048 0-4.096-2.048-6.144-2.048l-4.096-2.048c-2.048-2.048-6.144-2.048-12.288-2.048H268.288v106.496h4.096c12.288 0 24.576 4.096 40.96 10.24 18.432 8.192 40.96 16.384 65.536 16.384h18.432c12.288 0 30.72-6.144 47.104-12.288 20.48-6.144 40.96-14.336 57.344-14.336H573.44c32.768 0 43.008 4.096 43.008-26.624 0-14.336-20.48-26.624-43.008-26.624h-10.24c-14.336 0-14.336-26.624 0-26.624h10.24c2.048 0 55.296 2.048 71.68 14.336l178.176 106.496c4.096 2.048 8.192 4.096 12.288 4.096 14.336 2.048 20.48-4.096 20.48-4.096 8.192-18.432-6.144-30.72-6.144-30.72zM704.512 732.16c0 61.44-49.152 110.592-108.544 110.592H430.08c-61.44 0-108.544-49.152-108.544-110.592v-28.672c0-14.336 12.288-28.672 26.624-28.672s26.624 12.288 26.624 28.672V732.16c0 30.72 24.576 55.296 55.296 55.296h163.84c30.72 0 55.296-24.576 55.296-55.296v-28.672c0-14.336 12.288-28.672 26.624-28.672s26.624 12.288 26.624 28.672l2.048 28.672z m-6.144-108.544H325.632c-14.336 0-26.624-12.288-26.624-28.672 0-16.384 12.288-28.672 26.624-28.672H696.32c14.336 0 26.624 12.288 26.624 28.672 2.048 14.336-10.24 28.672-24.576 28.672z m0-135.168H325.632c-14.336 0-26.624-12.288-26.624-28.672 0-16.384 12.288-28.672 26.624-28.672H696.32c14.336 0 26.624 12.288 26.624 28.672 2.048 16.384-10.24 28.672-24.576 28.672z m0-133.12H325.632c-14.336 0-26.624-12.288-26.624-28.672 0-16.384 12.288-28.672 26.624-28.672H696.32c14.336 0 26.624 12.288 26.624 28.672 2.048 14.336-10.24 28.672-24.576 28.672zM135.168 263.168c-16.384 0-28.672 12.288-28.672 28.672V611.328c0 65.536 53.248 116.736 116.736 116.736 16.384 0 28.672-12.288 28.672-28.672 0-16.384-12.288-28.672-28.672-28.672-32.768 0-61.44-26.624-61.44-61.44v-319.488c2.048-14.336-12.288-26.624-26.624-26.624z m753.664 0c-16.384 0-28.672 12.288-28.672 28.672V611.328c0 32.768-26.624 61.44-61.44 61.44-16.384 0-28.672 12.288-28.672 28.672 0 16.384 12.288 28.672 28.672 28.672 65.536 0 116.736-53.248 116.736-116.736v-319.488c2.048-18.432-10.24-30.72-26.624-30.72z"  horiz-adv-x="1024" />

    
    <glyph glyph-name="search" unicode="&#58942;" d="M455.494979 90.93080699999996c-194.888903 0-353.441893 158.552792-353.441893 353.434928 0 194.881113 158.55299 353.433905 353.441893 353.433905S808.944036 639.246848 808.944036 444.365735C808.944036 249.48462199999994 650.383882 90.93080699999996 455.494979 90.93080699999996M455.494979 710.805484c-146.920627 0-266.44426-119.526018-266.44426-266.439749 0-146.914754 119.523633-266.440772 266.44426-266.440772s266.4504 119.526018 266.4504 266.440772C721.945379 591.279466 602.415606 710.805484 455.494979 710.805484M868.304189-21.95499099999995c-13.70566 0-27.402111 5.228061-37.85865 15.678043L645.790086 178.36396100000002c-20.905916 20.906104-20.905916 54.804077 0 75.714274 20.914103 20.899964 54.806268 20.899964 75.718324 0l184.654429-184.640908c20.90694-20.906104 20.90694-54.804077 0-75.714274C895.705277-16.72693000000004 882.008826-21.95499099999995 868.304189-21.95499099999995"  horiz-adv-x="1024" />

    
    <glyph glyph-name="zhanghao" unicode="&#59025;" d="M467.968 456.331636a139.403636 139.403636 0 1 0 165.794909 5.678546c84.014545-29.277091 144.151273-105.937455 144.151273-195.630546 0-11.310545-6.283636-29.416727-37.236364-31.604363-30.906182-2.187636-41.890909 20.293818-41.890909 31.604363 0 92.346182-73.588364 126.277818-140.567273 126.277819-67.025455 0-139.869091-33.978182-139.869091-126.277819 0-11.310545-9.029818-31.604364-40.587636-31.604363-31.557818 0-39.237818 20.293818-39.237818 31.604363 0 84.386909 53.154909 157.230545 129.396364 189.905455zM930.909091 60.043636H186.181818a186.181818 186.181818 0 0 0-186.181818 186.181819V709.818182a186.181818 186.181818 0 0 0 186.181818 186.181818h744.727273a186.181818 186.181818 0 0 0 186.181818-186.181818v-463.592727a186.181818 186.181818 0 0 0-186.181818-186.181819zM92.578909 710.283636v-467.083636a93.090909 93.090909 0 0 1 93.090909-93.090909h746.309818a93.090909 93.090909 0 0 1 93.090909 93.090909V710.283636a93.090909 93.090909 0 0 1-93.090909 93.090909H185.669818a93.090909 93.090909 0 0 1-93.090909-93.090909z m792.389818-837.818181H234.123636a46.359273 46.359273 0 0 0 0 92.76509h650.798546a46.359273 46.359273 0 1 0 0-92.76509z m-337.92 773.306181c-41.239273 0-74.705455-33.512727-74.705454-74.658909 0-41.192727 33.512727-74.705455 74.658909-74.705454 41.192727 0 74.705455 33.512727 74.705454 74.705454 0 41.146182-33.512727 74.658909-74.705454 74.658909z"  horiz-adv-x="1117" />

    
    <glyph glyph-name="daohang1" unicode="&#58881;" d="M801.84241737 575.07632924L363.74909292 575.07632924c-23.0401114 0-41.72309865 18.45928122-41.72309863 41.50018287s18.68298725 41.50018286 41.72309864 41.50018286l438.09253417 0c23.04090165 0 41.72309865-18.45928122 41.72309865-41.50018286S824.883319 575.07632924 801.84241737 575.07632924zM801.84241737 345.04674223999996L363.74909292 345.04674223999996c-23.0401114 0-41.72309865 18.85531199-41.72309863 41.89542338 0 23.04169189 18.68298725 41.89542339 41.72309864 41.8954234l438.09253417 0c23.04090165 0 41.72309865-18.85373074 41.72309865-41.8954234C843.56551599 363.90126395000004 824.883319 345.04674223999996 801.84241737 345.04674223999996zM801.84241737 115.80763551999996L363.74909292 115.80763551999996c-23.0401114 0-41.72309865 18.85452097-41.72309863 41.89542338s18.68298725 41.89542339 41.72309864 41.89542339l438.09253417 0c23.04090165 0 41.72309865-18.85452097 41.72309865-41.89542339S824.883319 115.80763551999996 801.84241737 115.80763551999996zM235.1174969 580.25239019l-36.50830416 0c-10.08493939 0-18.25375697 8.18936932-18.25375697 18.27351846l0 36.48775169c0 10.10470164 8.16881682 18.25375697 18.25375697 18.25375696l36.50830416 0c10.08414913 0 18.25375697-8.14905532 18.25375698-18.25375696l0-36.48775169C253.37125388 588.44254975 245.20164604 580.25239019 235.1174969 580.25239019L235.1174969 580.25239019zM235.1174969 121.29909770999996l-36.50830416 0c-10.08493939 0-18.25375697 8.18857908-18.25375697 18.27351846l0 36.48696144c0 10.10470164 8.16881682 18.25454721 18.25375697 18.2545472l36.50830416 0c10.08414913 0 18.25375697-8.14984557 18.25375698-18.2545472l0-36.48696144C253.37125388 129.48767678000002 245.20164604 121.29909770999996 235.1174969 121.29909770999996L235.1174969 121.29909770999996zM235.1174969 361.20651861l-36.50830416 0c-10.08493939 0-18.25375697 8.18936932-18.25375697 18.27351846l0 36.48775167c0 10.10470164 8.16881682 18.25375697 18.25375697 18.25375697l36.50830416 3e-8c10.08414913 0 18.25375697-8.14905532 18.25375698-18.253757l0-36.48775167C253.37125388 369.39588792999996 245.20164604 361.20651861 235.1174969 361.20651861L235.1174969 361.20651861z"  horiz-adv-x="1024" />

    
    <glyph glyph-name="peizhiguanli" unicode="&#58891;" d="M204.8 712.533333V823.466667c0 8.533333-4.266667 21.333333-12.8 25.6-8.533333 4.266667-12.8 4.266667-17.066667 4.266666-4.266667 0-12.8 0-17.066666-4.266666-8.533333-4.266667-12.8-12.8-12.8-25.6v-110.933334h-4.266667C81.066667 699.733333 42.666667 648.533333 42.666667 588.8s38.4-110.933333 98.133333-128l4.266667-4.266667v-512c0-8.533333 4.266667-21.333333 12.8-25.6 4.266667-4.266667 12.8-4.266667 17.066666-4.266666 4.266667 0 8.533333 0 12.8 4.266666 8.533333 4.266667 12.8 17.066667 12.8 25.6V460.8h4.266667c59.733333 12.8 98.133333 68.266667 98.133333 128s-38.4 110.933333-98.133333 123.733333z m21.333333-174.933333c-17.066667-17.066667-34.133333-21.333333-51.2-21.333333-12.8 0-29.866667 4.266667-38.4 12.8-29.866667 17.066667-38.4 55.466667-25.6 85.333333 12.8 25.6 38.4 42.666667 68.266667 42.666667h12.8c34.133333-8.533333 59.733333-38.4 59.733333-68.266667-4.266667-21.333333-12.8-38.4-25.6-51.2zM546.133333 375.466667l-4.266666 448c0 17.066667-12.8 29.866667-29.866667 29.866666-17.066667 0-29.866667-12.8-29.866667-29.866666v-448h-4.266666c-59.733333-17.066667-98.133333-68.266667-98.133334-128s38.4-110.933333 98.133334-128l4.266666-4.266667v-174.933333c0-17.066667 12.8-29.866667 29.866667-29.866667 17.066667 0 29.866667 12.8 29.866667 29.866667v174.933333h4.266666c59.733333 12.8 98.133333 68.266667 98.133334 128 0 64-42.666667 119.466667-98.133334 132.266667z m17.066667-179.2c-12.8-12.8-29.866667-21.333333-51.2-21.333334-12.8 0-29.866667 4.266667-38.4 12.8-29.866667 17.066667-38.4 55.466667-25.6 85.333334 12.8 25.6 38.4 42.666667 68.266667 42.666666h12.8c34.133333-8.533333 59.733333-34.133333 59.733333-68.266666-4.266667-17.066667-12.8-34.133333-25.6-51.2zM883.2 712.533333l-4.266667 4.266667V823.466667c0 8.533333-4.266667 21.333333-12.8 25.6-4.266667 4.266667-12.8 4.266667-17.066666 4.266666-4.266667 0-8.533333 0-12.8-4.266666-8.533333-4.266667-12.8-17.066667-12.8-25.6v-110.933334h-4.266667c-59.733333-12.8-98.133333-68.266667-98.133333-128s38.4-110.933333 98.133333-128l4.266667-4.266666v-512c0-8.533333 4.266667-21.333333 12.8-25.6 4.266667-4.266667 8.533333-4.266667 12.8-4.266667 4.266667 0 8.533333 0 12.8 4.266667 8.533333 4.266667 12.8 17.066667 12.8 25.6V456.533333h4.266666C938.666667 473.6 981.333333 524.8 981.333333 588.8s-42.666667 110.933333-98.133333 123.733333z m17.066667-174.933333c-12.8-12.8-29.866667-21.333333-51.2-21.333333-12.8 0-29.866667 4.266667-38.4 12.8-29.866667 17.066667-38.4 55.466667-25.6 85.333333 12.8 25.6 38.4 42.666667 68.266666 42.666667h12.8c34.133333-8.533333 59.733333-38.4 59.733334-68.266667-4.266667-21.333333-12.8-38.4-25.6-51.2z"  horiz-adv-x="1024" />

    
    <glyph glyph-name="daohang" unicode="&#58880;" d="M887.212102 631.3556209999999L320.083527 631.3556209999999c-29.826306 0-54.012148 23.896246-54.012148 53.723575s24.185842 53.723575 54.012148 53.723575l567.127552 0c29.827329 0 54.012148-23.896246 54.012148-53.723575S917.039431 631.3556209999999 887.212102 631.3556209999999zM887.212102 333.57351700000004L320.083527 333.57351700000004c-29.826306 0-54.012148 24.408923-54.012148 54.235229 0 29.828352 24.185842 54.235229 54.012148 54.235229l567.127552 0c29.827329 0 54.012148-24.406876 54.012148-54.235229C941.22425 357.98141699999996 917.039431 333.57351700000004 887.212102 333.57351700000004zM887.212102 36.814719999999966L320.083527 36.814719999999966c-29.826306 0-54.012148 24.407899-54.012148 54.235229s24.185842 54.235229 54.012148 54.235229l567.127552 0c29.827329 0 54.012148-24.407899 54.012148-54.235229S917.039431 36.814719999999966 887.212102 36.814719999999966zM153.565003 638.05623l-47.261397 0c-13.05534 0-23.630187 10.601452-23.630187 23.655769l0 47.234791c0 13.080923 10.574846 23.630187 23.630187 23.630187l47.261397 0c13.054317 0 23.630187-10.549264 23.630187-23.630187l0-47.234791C177.19519 648.658705 166.61932 638.05623 153.565003 638.05623L153.565003 638.05623zM153.565003 43.92362800000001l-47.261397 0c-13.05534 0-23.630187 10.600429-23.630187 23.655769l0 47.233768c0 13.080923 10.574846 23.63121 23.630187 23.63121l47.261397 0c13.054317 0 23.630187-10.550287 23.630187-23.63121l0-47.233768C177.19519 54.52405699999997 166.61932 43.92362800000001 153.565003 43.92362800000001L153.565003 43.92362800000001zM153.565003 354.492966l-47.261397 0c-13.05534 0-23.630187 10.601452-23.630187 23.655769l0 47.234791c0 13.080923 10.574846 23.630187 23.630187 23.630187l47.261397 0c13.054317 0 23.630187-10.549264 23.630187-23.630187l0-47.234791C177.19519 365.094418 166.61932 354.492966 153.565003 354.492966L153.565003 354.492966z"  horiz-adv-x="1024" />

    
    <glyph glyph-name="consumers" unicode="&#58889;" d="M1014.670222 54.727111a37.717333 37.717333 0 0 0-28.103111-12.515555h-4.608a37.262222 37.262222 0 0 0-37.148444 32.142222 251.790222 251.790222 0 0 1-149.845334 191.601778 36.920889 36.920889 0 0 0-21.788444 33.848888c0 12.913778 1.422222 30.435556 1.422222 30.606223l0.796445 10.524444 9.671111 5.063111A155.022222 155.022222 0 0 1 871.253333 480.711111a162.417778 162.417778 0 0 1-73.671111 136.533333 36.750222 36.750222 0 0 0-17.066666 30.776889v4.892445a36.864 36.864 0 0 0 19.740444 32.597333 37.376 37.376 0 0 0 38.058667-1.251555A247.352889 247.352889 0 0 0 921.6 598.072889a222.492444 222.492444 0 0 0 29.468444-117.816889 224.256 224.256 0 0 0-76.117333-166.229333 328.078222 328.078222 0 0 0 99.271111-97.28 317.383111 317.383111 0 0 0 49.493334-132.949334 36.579556 36.579556 0 0 0-9.045334-29.070222z m-231.253333 322.048a285.240889 285.240889 0 0 0-58.368-77.084444 393.272889 393.272889 0 0 0 115.655111-104.448 338.659556 338.659556 0 0 0 65.308444-169.642667 36.522667 36.522667 0 0 0-9.671111-28.046222 37.831111 37.831111 0 0 0-27.648-11.776h-14.791111a37.376 37.376 0 0 0-37.148444 32.142222 288.768 288.768 0 0 1-181.077334 227.555556 283.534222 283.534222 0 0 0-119.466666-25.088 314.083556 314.083556 0 0 0-118.897778 25.201777A288.711111 288.711111 0 0 1 216.177778 17.92a37.376 37.376 0 0 0-37.262222-32.142222H164.977778a37.660444 37.660444 0 0 0-28.16 12.572444 36.636444 36.636444 0 0 0-8.988445 29.240889 356.124444 356.124444 0 0 0 62.577778 158.606222 401.066667 401.066667 0 0 0 123.562667 113.777778A279.779556 279.779556 0 0 0 249.742222 388.949333a270.620444 270.620444 0 0 0-24.291555 112.469334A287.971556 287.971556 0 0 0 519.509333 782.222222 287.971556 287.971556 0 0 0 813.511111 501.418667a270.222222 270.222222 0 0 0-30.094222-124.643556z m-115.256889 262.371556a209.521778 209.521778 0 0 1-145.521778 56.888889H517.688889q-5.176889 0-10.296889-0.455112l-5.12-0.398222q-5.063111-0.455111-10.126222-1.194666l-5.176889-0.682667a207.018667 207.018667 0 0 1-106.211556-50.744889l-3.640889-3.413333a189.098667 189.098667 0 0 1 0-275.512889 209.521778 209.521778 0 0 1 145.521778-56.888889 206.563556 206.563556 0 0 1 143.189334 56.888889l3.584 3.299555a196.949333 196.949333 0 0 1 58.311111 134.542223 188.871111 188.871111 0 0 1-59.562667 137.671111zM164.977778 480.711111a154.624 154.624 0 0 1 22.755555-80.725333 157.184 157.184 0 0 1 60.359111-56.888889l10.296889-5.688889v-11.377778c0-0.853333 0-20.707556-1.080889-34.531555a36.693333 36.693333 0 0 0-22.755555-31.288889A265.443556 265.443556 0 0 1 130.844444 185.856a230.115556 230.115556 0 0 1-51.825777-112.298667 37.091556 37.091556 0 0 0-36.920889-31.345777H37.489778a37.660444 37.660444 0 0 0-28.444445 12.913777 36.465778 36.465778 0 0 0-8.590222 29.639111 323.185778 323.185778 0 0 0 154.737778 227.100445A230.456889 230.456889 0 0 0 81.976889 480.711111a225.393778 225.393778 0 0 0 32.995555 117.361778 250.766222 250.766222 0 0 0 86.528 84.252444 37.546667 37.546667 0 0 0 37.774223 0.455111 36.408889 36.408889 0 0 0 19.000889-32.142222v-5.290666a36.693333 36.693333 0 0 0-17.976889-31.516445A156.899556 156.899556 0 0 1 164.977778 480.711111z"  horiz-adv-x="1024" />

    
    <glyph glyph-name="ziyuanguanli" unicode="&#58940;" d="M63.130505 579.716267c0 0.567467 883.8272 0.631467 883.8272 0.631466V833.501013c0-0.567467-883.8272-0.631467-883.8272-0.631466v-253.15328zM8.332851 233.256107A61.426347 61.426347 0 0 0 0.000051 264.127147V517.7856c0 11.36384 3.03104 21.968213 8.3328 31.122773A61.426347 61.426347 0 0 0 0.000051 579.779413V833.437867C0.000051 867.969707 28.093491 896 63.130505 896h883.8272c34.619733 0.001707 62.784-27.880107 63.1296-62.498987v-253.784746a61.761707 61.761707 0 0 0-8.331947-31.059627 61.426347 61.426347 0 0 0 8.3328-30.87104v-253.658453c0-11.36384-3.03104-21.969067-8.3328-31.122774a61.426347 61.426347 0 0 0 8.3328-30.87104v-253.659306c0-34.53184-28.09344-62.562133-63.130453-62.562134H63.129651C28.509918-114.089813 0.346505-86.208 0.000051-51.588267V202.195627a61.761707 61.761707 0 0 0 8.3328 31.06048zM63.129651-51.524267c0 0.44288 883.8272 0.56832 883.8272 0.56832V202.195627c0-0.566613-883.8272-0.631467-883.8272-0.631467v-253.152427 0.064z m0 315.652267c0 0.44288 883.8272 0.56832 883.8272 0.56832V517.848747c0-0.567467-883.8272-0.631467-883.8272-0.631467V264.064v0.064zM157.826611 706.60864c17.432747 0 31.5648 14.132053 31.5648 31.5648 0 17.4336-14.132053 31.5648-31.5648 31.5648-17.4336 0-31.5648-14.1312-31.5648-31.5648 0-17.432747 14.1312-31.5648 31.5648-31.5648z m126.260907 0c17.432747 0 31.5648 14.132053 31.5648 31.5648 0 17.4336-14.132053 31.5648-31.5648 31.5648-17.4336 0-31.5648-14.1312-31.5648-31.5648 0-17.432747 14.1312-31.5648 31.5648-31.5648z m220.95616 31.5648c-0.00256 17.214293 13.787307 31.255893 30.998187 31.5648H852.829918c17.432747 0 31.5648-14.1312 31.5648-31.5648 0-17.432747-14.132053-31.5648-31.5648-31.5648H536.041865c-17.211733 0.308907-31.000747 14.35136-30.998187 31.5648zM157.826611 390.956373c17.432747 0 31.5648 14.132053 31.5648 31.5648 0 17.4336-14.132053 31.5648-31.5648 31.5648-17.4336 0-31.5648-14.1312-31.5648-31.5648 0-17.432747 14.1312-31.5648 31.5648-31.5648z m126.260907 0c17.432747 0 31.5648 14.132053 31.5648 31.5648 0 17.4336-14.132053 31.5648-31.5648 31.5648-17.4336 0-31.5648-14.1312-31.5648-31.5648 0-17.432747 14.1312-31.5648 31.5648-31.5648z m220.95616 31.5648c-0.00256 17.214293 13.787307 31.255893 30.998187 31.5648H852.829918c17.432747 0 31.5648-14.1312 31.5648-31.5648 0-17.432747-14.132053-31.5648-31.5648-31.5648H536.041865c-17.211733 0.308907-31.000747 14.35136-30.998187 31.5648zM157.826611 75.304107c17.432747 0 31.5648 14.1312 31.5648 31.5648 0 17.4336-14.132053 31.5648-31.5648 31.5648-17.4336 0-31.5648-14.1312-31.5648-31.5648 0-17.4336 14.1312-31.5648 31.5648-31.5648z m126.260907 0c17.432747 0 31.5648 14.1312 31.5648 31.5648 0 17.4336-14.132053 31.5648-31.5648 31.5648-17.4336 0-31.5648-14.1312-31.5648-31.5648 0-17.4336 14.1312-31.5648 31.5648-31.5648z m220.95616 31.5648c-0.00256 17.214293 13.787307 31.255893 30.998187 31.5648H852.829918c17.432747 0 31.5648-14.1312 31.5648-31.5648 0-17.4336-14.132053-31.5648-31.5648-31.5648H536.041865c-17.211733 0.308907-31.000747 14.35136-30.998187 31.5648z"  horiz-adv-x="1024" />

    
    <glyph glyph-name="jiantou" unicode="&#58965;" d="M490.897 172.304c0.973-0.486 1.824-1.338 2.797-1.703 17.758-8.514 39.651-5.717 53.882 9.365l325.116 343.725c17.758 18.731 16.907 48.287-1.824 66.045s-48.287 16.907-66.045-1.824l-291.79-308.453-296.047 307.236c-17.881 18.609-47.436 19.096-66.045 1.216-9.487-9.122-14.351-21.407-14.352-33.57 0-11.676 4.378-23.353 13.137-32.353l328.278-340.563c0.608-0.608 1.581-0.851 2.189-1.581 0.487-0.487 0.851-0.973 1.338-1.581 2.797-2.797 6.203-4.135 9.365-5.959z m0 0z"  horiz-adv-x="1024" />

    
    <glyph glyph-name="jiqunguanli1" unicode="&#58892;" d="M282.4 651.3h459.1l4.5-0.3c11.2 1 21.2 6.2 29.2 13.7 8.2 8.8 13.5 20.3 13.5 33.3v24.2c0 13-5.2 25-13.5 33.2-8.5 8.8-20.5 14-33.7 14H282.4c-13 0-25-5.2-33.5-14-8.5-8.2-13.5-20.2-13.5-33.2V698c0-13 5-24.5 13.5-33.3 8-7.5 17.5-12.7 29-13.7l4.5 0.3z m22.5-227.2c19.5 0 35.5-16 35.5-35.2 0-19.2-16-35.2-35.5-35.2s-35 16-35 35.2c0 19.2 15.6 35.2 35 35.2z m0 160.7c19.5 0 35.5-15.7 35.5-35 0-19.8-16-35.5-35.5-35.5s-35 15.7-35 35.5c0 19.3 15.6 35 35 35z m0 160.7c19.5 0 35.5-16 35.5-35.3 0-19.7-16-35.2-35.5-35.2s-35 15.5-35 35.2c0 19.3 15.6 35.3 35 35.3z m242.5-458.4v-96c18.7-5.5 36-16 49.5-30 13.5-13.2 23.7-29.5 29.5-48.2h307.9c19.5 0 35.2-15.2 35.2-35.2 0-19.3-15.7-35-35.2-35h-307c-5.8-19.7-16-37.5-30.5-51.2-21.5-22.2-51.5-35.5-85-35.5-33 0-63.5 13.2-85 35.5-14 13.8-24.5 31.5-30.5 51.2H89.5c-19.5 0-35 15.8-35 35 0 20 15.5 35.2 35 35.2h307.9c6 18.8 16.5 35 29.5 48.2 13.7 14 30.7 24.5 49.7 30v96H282.4c-24.5 0-47 10.3-63.2 26.5v0.5C203 329.6 193 352.4 193 376.9v24.2c0 24.5 10 47 26.3 63.2 1.8 1.8 3.3 3.3 5.5 5.3-2.2 1.2-3.7 3-5.5 4.5-16.3 16.5-26.3 38.7-26.3 63.2v24.5c0 24.5 10 47 26.3 62.7 1.8 2.3 3.3 3.7 5.5 5-2.2 2-3.7 3.8-5.5 5.2C203 651.1 193 673.5 193 698v24.2c0 24.5 10 47.2 26.3 63.3C235.5 801.8 257.5 812 282.4 812h459.1c24.8 0 47-10.2 63.2-26.5 16-16 26.3-38.8 26.3-63.3V698c0-24.5-10.3-47-26.3-63.2-1.5-1.5-3.7-3.3-5.5-5.2 1.8-1.3 3.5-2.7 5.5-5 16-16 26.3-38.2 26.3-62.7v-24.5c0-24.5-10.3-47-26.3-63.2-1.5-1.5-3.7-3.3-5.5-4.5 1.8-2 3.5-3.5 5.5-5.3 16-16.2 26.3-38.8 26.3-63.2V377c0-24.5-10.3-47.2-26.3-62.7-16.2-16.7-38.5-27-63.2-27H547.4v-0.2z m198.7 321.7l-4.5-0.2H282.4l-4.5 0.2c-11.5-0.7-21-6-29-13.7-8.5-8.5-13.5-20.3-13.5-33.2v-24.5c0-12.8 5-24.8 13.5-33.2v-0.5c8-7.2 17.5-12.5 29-13.2l4.5 0.2h459.1l4.5-0.2c11.2 0.7 21.2 6 29.2 13.7 8.2 8.5 13.5 20.5 13.5 33.2v24.5c0 13-5.2 24.7-13.5 33.2v0.5c-7.9 7.2-17.9 12.5-29.1 13.2z m0-160.7l-4.5-0.3H282.4l-4.5 0.3c-11.5-1-21-6-29-13.7-8.5-8.8-13.5-20.3-13.5-33.2V377c0-13 5-24.7 13.5-33.2 8.5-8.8 20.5-14 33.5-14h459.1c13.2 0 24.8 5.2 33.7 14 8.2 8.5 13.5 20.2 13.5 33.2v24.2c0 13-5.2 24.5-13.5 33.2-7.9 7.7-17.9 12.7-29.1 13.7zM566.9 131.7c-14 14-33 22.8-55 22.8-21.5 0-41-8.8-55-22.8-14-14.3-23-33.5-23-55.2 0-21.8 9-41.2 23-55.2s33.5-22.7 55-22.7c22 0 41 8.7 55 22.7 14.5 14 23 33.5 23 55.2 0 21.7-8.5 40.9-23 55.2z m0 0"  horiz-adv-x="1024" />

    
    <glyph glyph-name="yingyongguanli" unicode="&#58920;" d="M512 41.59a36.69 36.69 0 0 0-36.69 36.69V384a36.69 36.69 0 0 0 73.38 0v-305.72A36.69 36.69 0 0 0 512 41.59zM512 347.31a36.69 36.69 0 0 0-18.37 68.46l264.79 152.86a36.69 36.69 0 1 0 36.69-63.54L530.34 352.23a36.44 36.44 0 0 0-18.34-4.92zM511.77 347.31a36.49 36.49 0 0 0-18.31 4.92L228.7 505.09a36.68 36.68 0 1 0 36.68 63.54l264.77-152.86a36.69 36.69 0 0 0-18.38-68.46zM512-128a110 110 0 0 0-51.82 13L109.62 72.07a109.84 109.84 0 0 0-58.24 97.1V598.83a109.84 109.84 0 0 0 58.24 97.1L460.18 883a109.86 109.86 0 0 0 103.64 0l350.56-187.07a109.84 109.84 0 0 0 58.24-97.1v-429.66a109.84 109.84 0 0 0-58.24-97.1L563.82-115a110 110 0 0 0-51.82-13z m0 950.61a36.61 36.61 0 0 1-17.27-4.33L144.16 631.2a36.63 36.63 0 0 1-19.41-32.37v-429.66a36.63 36.63 0 0 1 19.41-32.37l350.57-187.08a36.62 36.62 0 0 1 34.54 0L879.84 136.8a36.63 36.63 0 0 1 19.41 32.37V598.83a36.63 36.63 0 0 1-19.41 32.37L529.27 818.28A36.59 36.59 0 0 1 512 822.61z"  horiz-adv-x="1024" />

    
    <glyph glyph-name="yunrongqi" unicode="&#58954;" d="M359.872 636.16a231.808 231.808 0 0 0 195.072 107.136c105.28 0 193.408-70.848 221.888-167.04 5.76-19.52 9.92-43.2 10.304-64.448 4.672-0.32 9.408-3.136 13.952-3.968 18.176-3.264 35.072-9.984 49.984-19.712 21.184-13.824 37.888-33.472 48.64-56.576l0.384 0.192a32.576 32.576 0 0 1 58.176 29.184l0.256 0.128a200.512 200.512 0 0 1-110.4 101.632c-24.704 139.776-146.368 246.528-293.12 246.528-116.608 0-216.704-67.904-265.728-165.632C164.032 637.824 63.744 535.04 63.744 408.448c0-95.616 63.104-177.024 147.712-213.888a32.896 32.896 0 0 1 7.232-3.52c3.072-0.96 6.144-1.92 9.536-1.92a32.128 32.128 0 0 1 32.128 32.128 31.68 31.68 0 0 1-24.512 30.592c-61.76 25.472-106.112 85.76-106.112 156.608 0 81.472 57.536 149.568 134.08 166.208 11.712 2.56 23.808 4.096 36.224 4.096 11.264 0 22.144-1.216 32.832-3.328 6.336 21.632 15.04 42.176 27.008 60.736zM825.472 455.36a32 32 0 0 1-26.944 14.784H480.576a31.808 31.808 0 0 1-26.688-14.4l-132.032-200.192a31.936 31.936 0 0 1-5.312-17.6v-247.296a32 32 0 0 1 32-32h577.984a32 32 0 0 1 32 32v247.296a31.616 31.616 0 0 1-5.056 17.216l-128 200.192z m-327.68-49.216h283.2l81.216-127.04h-49.6a32 32 0 0 1-27.712-16l-49.536-95.872a32 32 0 0 0-27.712-16h-142.08a32 32 0 0 0-28.672 17.856l-40.448 92.096a32 32 0 0 1-28.672 17.856h-53.76l83.776 127.104z m-117.248-383.488V215.04h47.424a32 32 0 0 0 28.672-17.856l40.384-92.096a32 32 0 0 1 28.672-17.856h218.88a32 32 0 0 1 27.712 16l49.536 95.872a31.936 31.936 0 0 0 27.712 16h44.928v-192.384h-513.92z"  horiz-adv-x="1024" />

    
    <glyph glyph-name="right" unicode="&#58883;" d="M744.96 670.3104l256.89884444-252.68906667A39.37848889 39.37848889 0 0 0 1014.89777778 400.30435555a6.49671111 6.49671111 0 0 0 0.20480001-1.13777777 34.98666667 34.98666667 0 0 0 2.71928888-13.1072c0-0.61440001 0.512-1.3312 0.512-1.9456 0-1.2288-0.83057778-2.27555555-0.83057777-3.4816a31.98293333 31.98293333 0 0 0-1.76355557-7.96444445 45.23804445 45.23804445 0 0 0-3.65226666-8.9088 37.01191111 37.01191111 0 0 0-3.41333334-5.0176c-1.13777778-1.4336-1.66115555-3.28817778-3.23128889-4.55111111L744.96000001 97.84888889000001a43.13315555 43.13315555 0 0 0-60.60942223 0 41.84746667 41.84746667 0 0 0 0 59.81297778l187.34648889 184.31999999L453.89368888 341.98186667000004c-23.95022222 0-43.63377778 19.1488-43.63377777 42.71217778s19.58115555 42.71217778 43.63377778 42.71217777l416.42666666 0-185.98115555 183.18222222a41.73368889 41.73368889 0 0 0 0 59.72195556C700.87111111 686.64888889 728.17777778 686.64888889 744.96 670.3104zM294.87786667 384.43235555c0-23.552-19.47875555-42.71217778-43.42897778-42.71217777s-43.32657778 19.05777778-43.32657778 42.71217778S227.55555555 427.14453333 251.44888889 427.14453333a42.91697778 42.91697778 0 0 0 43.42897778-42.71217778z m-202.4448 0c0-23.552-19.34222222-42.71217778-43.4176-42.71217777-23.89333333 0-43.32657778 19.05777778-43.32657778 42.71217778s19.46737778 42.71217778 43.32657778 42.71217777a42.91697778 42.91697778 0 0 0 43.4176-42.71217778z m0 0"  horiz-adv-x="1024" />

    
    <glyph glyph-name="shujuzhanshi" unicode="&#58946;" d="M256.384 438.016a53.12 53.12 0 1 0 0-106.24H128a117.12 117.12 0 0 0-117.12 117.12V768C10.88 832.64 63.36 885.12 128 885.12h310.72c64.704 0 117.12-52.48 117.12-117.12v-768c0-6.016 4.864-10.88 10.88-10.88H896a10.88 10.88 0 0 1 10.88 10.88V320a10.88 10.88 0 0 1-10.88 10.88h-134.4a53.12 53.12 0 1 0 0 106.24H896c64.64 0 117.12-52.48 117.12-117.12v-320c0-64.64-52.48-117.12-117.12-117.12H566.72A117.12 117.12 0 0 0 449.6 0V768a10.88 10.88 0 0 1-10.88 10.88H128a10.88 10.88 0 0 1-10.88-10.88v-319.104c0-6.016 4.864-10.88 10.88-10.88h128.384z"  horiz-adv-x="1024" />

    
    <glyph glyph-name="jiqunguanli" unicode="&#59062;" d="M289.28 76.8h445.44l-145.408 174.4384c-22.7328-13.2608-49.152-20.8384-77.312-20.8384s-54.5792 7.5776-77.312 20.8384L289.28 76.8z m15.36-51.2A128 128 0 1 0 153.6 125.44V642.56A128 128 0 1 0 304.64 742.4h414.72A128 128 0 1 0 870.4 642.56v-517.12A128 128 0 1 0 719.36 25.6h-414.72zM204.8 125.44c15.7696-3.2256 30.5152-9.3184 43.6224-17.7664l146.944 176.384A152.9856 152.9856 0 0 0 358.4 384c0 38.1952 13.9264 73.1136 36.9664 99.9424l-146.944 176.384A127.232 127.232 0 0 0 204.8 642.56v-517.12zM289.28 691.2l145.408-174.4384C457.4208 530.0224 483.84 537.6 512 537.6s54.5792-7.5776 77.312-20.8384L734.72 691.2h-445.44zM819.2 642.56a127.232 127.232 0 0 0-43.6224 17.7664l-146.944-176.384c23.04-26.8288 36.9664-61.7472 36.9664-99.9424s-13.9264-73.1136-36.9664-99.9424l146.944-176.384c13.1072 8.448 27.8528 14.5408 43.6224 17.7664V642.56zM179.2 691.2a76.8 76.8 0 1 1 0 153.6 76.8 76.8 0 0 1 0-153.6z m332.8-409.6a102.4 102.4 0 1 1 0 204.8 102.4 102.4 0 0 1 0-204.8z m-332.8-358.4a76.8 76.8 0 1 1 0 153.6 76.8 76.8 0 0 1 0-153.6z m665.6 768a76.8 76.8 0 1 1 0 153.6 76.8 76.8 0 0 1 0-153.6z m0-768a76.8 76.8 0 1 1 0 153.6 76.8 76.8 0 0 1 0-153.6z"  horiz-adv-x="1024" />

    
    <glyph glyph-name="huanchong" unicode="&#59511;" d="M512 640c-26.4 0-48 21.6-48 48V848c0 26.4 21.6 48 48 48s48-21.6 48-48v-160c0-26.4-21.6-48-48-48zM256 384c0-26.4-21.6-48-48-48H48c-26.4 0-48 21.6-48 48s21.6 48 48 48h160c26.4 0 48-21.6 48-48zM512-128c-26.4 0-48 21.6-48 48V80c0 26.4 21.6 48 48 48s48-21.6 48-48v-160c0-26.4-21.6-48-48-48zM1024 384c0-26.4-21.6-48-48-48H816c-26.4 0-48 21.6-48 48s21.6 48 48 48h160c26.4 0 48-21.6 48-48zM290.3 512c-13.2-22.9-42.7-30.8-65.6-17.6l-138.6 80c-22.9 13.2-30.8 42.7-17.6 65.6 13.2 22.9 42.7 30.8 65.6 17.6l138.6-80c22.9-13.2 30.8-42.7 17.6-65.6zM256-59.4c-22.9 13.2-30.8 42.7-17.6 65.6l80 138.6c13.2 22.9 42.7 30.8 65.6 17.6 22.9-13.2 30.8-42.7 17.6-65.6l-80-138.6c-13.2-22.9-42.7-30.8-65.6-17.6zM955.4 128c-13.2-22.9-42.7-30.8-65.6-17.6l-138.6 80c-22.9 13.2-30.8 42.7-17.6 65.6 13.2 22.9 42.7 30.8 65.6 17.6l138.6-80c22.9-13.2 30.8-42.7 17.6-65.6zM384 605.7c-22.9-13.2-52.4-5.3-65.6 17.6l-80 138.6c-13.2 22.9-5.3 52.4 17.6 65.6 22.9 13.2 52.4 5.3 65.6-17.6l80-138.6c13.2-22.9 5.3-52.4-17.6-65.6zM290.3 256c13.2-22.9 5.3-52.4-17.6-65.6l-138.6-80c-22.9-13.2-52.4-5.3-65.6 17.6-13.2 22.9-5.3 52.4 17.6 65.6l138.6 80c22.9 13.2 52.4 5.3 65.6-17.6zM768-59.4c-22.9-13.2-52.4-5.3-65.6 17.6l-80 138.6c-13.2 22.9-5.3 52.4 17.6 65.6 22.9 13.2 52.4 5.3 65.6-17.6l80-138.6c13.2-22.9 5.3-52.4-17.6-65.6zM955.4 640c13.2-22.9 5.3-52.4-17.6-65.6l-138.6-80c-22.9-13.2-52.4-5.3-65.6 17.6-13.2 22.9-5.3 52.4 17.6 65.6l138.6 80c22.9 13.2 52.4 5.3 65.6-17.6z"  horiz-adv-x="1024" />

    
    <glyph glyph-name="rongqifuwu-rongqizu" unicode="&#58931;" d="M505.856 578.56l75.776-45.056-75.776-45.056-75.776 45.056 75.776 45.056m0 67.584c-4.096 0-8.192-2.048-12.288-4.096l-151.552-90.112c-14.336-8.192-14.336-30.72 0-38.912l151.552-90.112c4.096-2.048 8.192-4.096 12.288-4.096s8.192 2.048 12.288 4.096l151.552 90.112c14.336 8.192 14.336 30.72 0 38.912l-151.552 90.112c-4.096 2.048-8.192 4.096-12.288 4.096zM348.16 402.432l79.872-47.104V261.12L348.16 308.224v94.208m-38.912 90.112c-12.288 0-22.528-10.24-22.528-22.528v-184.32c0-8.192 4.096-14.336 10.24-18.432l157.696-92.16c4.096-2.048 8.192-4.096 10.24-4.096 12.288 0 22.528 10.24 22.528 22.528v184.32c0 8.192-4.096 14.336-10.24 18.432l-157.696 92.16c-2.048 2.048-6.144 4.096-10.24 4.096zM663.552 402.432v-92.16L583.68 261.12v92.16l79.872 49.152m38.912 90.112c-4.096 0-8.192 0-10.24-4.096L532.48 396.288c-6.144-4.096-10.24-12.288-10.24-18.432v-184.32c0-12.288 10.24-22.528 22.528-22.528 4.096 0 8.192 0 10.24 4.096l157.696 92.16c6.144 4.096 10.24 12.288 10.24 18.432v184.32c2.048 12.288-8.192 22.528-20.48 22.528zM512 814.08c8.192 0 14.336-2.048 20.48-6.144l333.824-192.512c12.288-8.192 20.48-20.48 20.48-34.816v-385.024c0-14.336-8.192-28.672-20.48-34.816L532.48-33.792c-6.144-4.096-12.288-6.144-20.48-6.144s-14.336 2.048-20.48 6.144L157.696 158.72c-12.288 8.192-20.48 20.48-20.48 34.816V578.56c0 14.336 8.192 28.672 20.48 34.816L491.52 807.936c8.192 4.096 14.336 6.144 20.48 6.144m0 61.44c-18.432 0-34.816-4.096-51.2-14.336L126.976 668.672c-30.72-18.432-51.2-51.2-51.2-88.064v-385.024c0-36.864 20.48-69.632 51.2-88.064L460.8-87.04c16.384-8.192 32.768-14.336 51.2-14.336s34.816 4.096 51.2 14.336l333.824 192.512c30.72 18.432 51.2 51.2 51.2 88.064V578.56c0 36.864-20.48 69.632-51.2 88.064L563.2 861.184c-14.336 8.192-32.768 14.336-51.2 14.336zM483.328 852.992h61.44V588.8h-61.44zM659.3536 262.79936l29.0816 54.12864 227.328-122.10176-29.0816-54.12864zM104.59136 163.10272l209.34656 150.87616 35.92192-49.82784L140.51328 113.2544z"  horiz-adv-x="1024" />

    
    <glyph glyph-name="xitongpeizhiguanli" unicode="&#59105;" d="M787.333831 307.053907a75.189984 75.189984 0 0 1-75.093984-75.092984 75.189984 75.189984 0 0 1 75.093984-75.093984 75.165984 75.165984 0 0 1 75.067984 75.093984 75.165984 75.165984 0 0 1-75.067984 75.092984m0-222.841953a147.919968 147.919968 0 0 0-147.748968 147.748969c0 81.455982 66.291986 147.747968 147.748968 147.747968 81.431983 0 147.747968-66.291986 147.747968-147.747968 0-81.480982-66.315986-147.748968-147.747968-147.748969m89.452981-102.106978c0.342-0.244 1.317-0.585 2.315999-0.585h0.122l71.484985 39.496992c-1.706 4.022999-9.605998 23.478995-9.605998 43.739991a113.858976 113.858976 0 0 0 107.739977 113.613975c0.853 4.729999 5.557999 31.524993 5.557998 51.639989s-4.704999 46.88399-5.558998 51.637989a113.858976 113.858976 0 0 0-107.738977 113.565976c0 20.357996 7.923998 39.813991 9.605998 43.81299l-70.313985 39.057992-0.293 0.025a5.339999 5.339999 0 0 1-2.706-0.732 196.753958 196.753958 0 0 0-26.014994-21.819995c-21.698995-15.238997-42.153991-22.967995-60.951987-22.967995-18.919996 0-39.594991 7.874998-61.390987 23.405995a194.705958 194.705958 0 0 0-26.160994 22.283995 5.777999 5.777999 0 0 1-2.729999 0.707h-0.245l-72.824985-40.032992c1.706-4.046999 9.580998-23.479995 9.580998-43.73999A113.858976 113.858976 0 0 0 528.895886 281.649912c-0.854-4.729999-5.509999-31.524993-5.509998-51.638989s4.655999-46.90899 5.533998-51.662989a113.858976 113.858976 0 0 0 107.763977-113.589975c0-20.334996-7.972998-39.863991-9.679998-43.788991l68.973985-38.545992h0.146c1.024 0 1.95 0.365 2.317 0.585a200.849957 200.849957 0 0 0 26.428994 23.161995c22.088995 16.188997 43.079991 24.429995 62.414987 24.429995 19.552996 0 40.715991-8.387998 62.950986-24.917995 14.920997-11.068998 25.258995-22.185995 26.550995-23.575995m22.673995-108.397976c-13.774997 0.025-27.135994 5.704999-35.765993 15.213996-11.775997 12.896997-49.005989 46.44599-79.530982 46.44599-30.280993 0-68.119985-33.767993-78.993984-45.54399-8.606998-9.386998-21.869995-14.969997-35.498992-14.969997-6.484999 0-12.604997 1.243-18.187996 3.706l-0.975 0.414-92.69698 51.833988-0.926 0.683a44.46999 44.46999 0 0 0-14.920996 53.735989c0.049 0.146 8.532998 19.699996 8.532998 37.594992a98.376979 98.376979 0 0 1-98.254979 98.254978h-3.900999c-15.505997 0-28.159994 13.799997-32.182993 35.108993-0.341 1.706-7.923998 42.178991-7.923999 74.044984 0 31.913993 7.557998 72.361984 7.899999 74.117984 4.119999 21.576995 16.992996 35.449992 32.816993 35.083993h3.266999a98.400979 98.400979 0 0 1 98.279979 98.303978c0 17.846996-8.484998 37.399992-8.558998 37.619992a44.34899 44.34899 0 0 0 15.067996 53.661989l0.95 0.658 97.840979 53.759988 1.024 0.415c5.485999 2.364999 11.507998 3.534999 17.895996 3.534999 13.604997 0 26.891994-5.436999 35.595992-14.628997 11.580998-12.116997 48.17699-43.641991 77.774984-43.64199 29.354994 0 65.755986 30.914993 77.287983 42.812991 8.654998 8.996998 21.844995 14.335997 35.302992 14.335997 6.509999 0 12.653997-1.219 18.285997-3.657l0.974999-0.414 94.47698-52.516988 0.95-0.658c16.895996-11.751997 23.332995-34.889993 14.945997-53.735989-0.049-0.146-8.532998-19.699996-8.532999-37.545992a98.400979 98.400979 0 0 1 98.254979-98.279978h3.291c15.774997 0.341 28.719994-13.506997 32.816993-35.107993 0.317-1.707 7.899998-42.203991 7.899998-74.069984 0-31.889993-7.582998-72.410984-7.948998-74.117984-4.046999-21.551995-16.992996-35.424992-32.767993-35.059993h-3.291a98.400979 98.400979 0 0 1-98.254979-98.278978c0-17.846996 8.483998-37.449992 8.556999-37.619992a44.42199 44.42199 0 0 0-15.017997-53.710989l-0.927-0.683-96.133979-53.100988-0.975-0.415a44.88499 44.88499 0 0 0-17.846996-3.583999z m222.061952 705.339848a48.76199 48.76199 0 1 0-97.523979 0V774.022806c0 13.457997-10.873998 24.453995-24.307995 24.453995h-877.859811c-13.262997 0-24.306995-10.970998-24.306995-24.453995v-584.995874c0-13.457997 10.873998-24.453995 24.307995-24.453995h219.500953a48.76199 48.76199 0 1 0 0-97.523979H48.907989A48.76199 48.76199 0 0 0 0 115.809948V847.23779C0 874.177785 21.893995 895.99978 48.907989 895.99978h1023.706781a48.76199 48.76199 0 0 0 48.907989-48.76199v-268.189942zM219.427953-79.23701c0 26.940994 21.991995 48.76199 48.981989 48.761989h194.607959a48.76199 48.76199 0 1 0 0-97.523979H268.433942a48.76199 48.76199 0 0 0-49.005989 48.76199z"  horiz-adv-x="1169" />

    
    <glyph glyph-name="jingxiangguanli" unicode="&#58884;" d="M260.7616 489.7792L324.5568 425.984H178.0224a30.0032 30.0032 0 0 1 0-60.0576h146.5344l-63.744-63.744a29.952 29.952 0 1 1 42.3936-42.4448l99.84 100.0448a51.2 51.2 0 0 1 0 72.3968L303.2064 532.1728a29.952 29.952 0 0 1-42.3936 0 30.0032 30.0032 0 0 1 0-42.3936zM923.136 883.7632L505.1904 800.256 87.296 883.7632a51.2 51.2 0 0 1-61.2352-50.176V-27.136a51.2 51.2 0 0 1 61.2352-50.176l417.8944 83.5072 417.8944-83.5584a51.2 51.2 0 0 1 61.2352 50.176V833.536A51.2 51.2 0 0 1 923.136 883.7632zM86.1184 822.784L474.112 745.1136v-683.9296L86.016-16.384V822.784z m838.144-839.1168l-387.9936 77.6192V745.216l388.0448 77.6192v-839.168zM749.6192 489.7792L685.7728 425.984h146.5344a30.0032 30.0032 0 0 0 0-60.0576h-146.432l63.744-63.744a29.952 29.952 0 1 0-42.3424-42.496l-100.0448 100.096a51.2 51.2 0 0 0 0 72.3968l99.9936 100.0448a29.952 29.952 0 0 0 42.3936-42.3936z"  horiz-adv-x="1024" />

    
    <glyph glyph-name="Redis" unicode="&#58938;" d="M951.808-25.088c0-16.384-13.312-29.696-29.696-29.696h-188.928v-64h188.928c51.712 0 93.184 41.984 93.184 93.184V792.064c0 51.712-41.984 93.184-93.184 93.184H105.984c-51.712 0-93.184-41.984-93.184-93.184v-816.64c0-51.712 41.984-93.184 93.184-93.184h177.664v64H105.984c-16.384 0-29.696 13.312-29.696 29.696V792.064c0 16.384 13.312 29.696 29.696 29.696h816.64c16.384 0 29.696-13.312 29.696-29.696v-817.152zM392.704-54.272h66.56v-64h-66.56zM544.768-54.272h66.56v-64h-66.56zM512 381.44c-12.288 0-24.064 2.56-35.328 7.68L227.84 501.248c-13.312 6.144-21.504 18.944-21.504 33.792 0 14.336 8.704 27.648 21.504 33.792L476.672 680.96c22.528 10.24 48.128 10.24 70.656 0l248.832-112.64c13.312-6.144 21.504-18.944 21.504-33.792 0-14.336-8.704-27.648-21.504-33.792L547.328 389.12c-11.264-5.12-23.04-7.68-35.328-7.68z m-203.264 153.6l194.048-87.552c5.632-2.56 12.288-2.56 17.92 0l194.048 87.552-194.048 87.552c-5.632 2.56-12.288 2.56-17.92 0L308.736 535.04zM512 222.72c-12.288 0-24.064 2.56-35.328 7.68l-248.832 112.128c-15.872 7.168-23.04 26.112-15.872 42.496 7.168 15.872 26.112 23.04 42.496 15.872l248.832-112.128c5.632-2.56 12.288-2.56 17.92 0l248.832 112.128c15.872 7.168 34.816 0 42.496-15.872 7.168-15.872 0-34.816-15.872-42.496L547.84 230.4c-11.776-5.632-23.552-7.68-35.84-7.68zM512 62.464c-12.288 0-24.064 2.56-35.328 7.68l-248.832 112.128c-15.872 7.168-23.04 26.112-15.872 42.496 7.168 15.872 26.112 23.04 42.496 15.872l248.832-112.128c5.632-2.56 12.288-2.56 17.92 0l248.832 112.128c15.872 7.168 34.816 0 42.496-15.872 7.168-15.872 0-34.816-15.872-42.496L547.84 70.144c-11.776-5.12-23.552-7.68-35.84-7.68z"  horiz-adv-x="1024" />

    
    <glyph glyph-name="jiedian" unicode="&#59576;" d="M676-26.7c-10 0-19.3 5.4-24.2 14-5 8.6-5 19.4 0 28 5 8.6 14.3 14 24.3 14h182.2c10 0 19.3-5.4 24.2-14 5-8.6 5-19.4 0-28-5-8.6-14.3-14-24.3-14H676z m-18.2 72.9c-22.1 0-42.8 8.6-58.5 24.2-13.3 13.3-21.5 30.3-23.6 48.7H325.4c-15.3-22.6-41-36.5-68.5-36.5-4.8 0-9.6 0.4-14.4 1.3-34.1 6-61.1 33-67.1 67.1-5.7 32.2 8.4 64.8 35.2 82.9V410.7h-44.9c-15.4 0-28 12.6-28 28s12.6 28 28 28H348c15.4 0 28-12.6 28-28s-12.6-28-28-28h-81.3v-163.2c18.4-2.2 35.4-10.4 48.7-23.6 13.3-13.3 21.5-30.3 23.6-48.7h236.1v99.6c0 22.1 8.6 42.8 24.2 58.5 15.6 15.6 36.4 24.2 58.5 24.2h99.6v236c-18.4 2.2-35.4 10.4-48.7 23.6-13.3 13.3-21.5 30.3-23.6 48.7H448.9v-99.6c0-22.1-8.6-42.8-24.2-58.5-15.6-15.6-36.4-24.2-58.5-24.2H147.5c-45.6 0-82.7 37.1-82.7 82.7V712c0 45.6 37.1 82.7 82.7 82.7h218.7c22.1 0 42.8-8.6 58.5-24.2 13.3-13.3 21.5-30.3 23.6-48.7h250.3c15.3 22.6 41 36.5 68.5 36.5 4.8 0 9.6-0.4 14.4-1.3 34.1-6 61-33 67.1-67.1 5.7-32.2-8.4-64.8-35.2-82.9v-249.7h63.1c45.6 0 82.7-37.1 82.7-82.7v-145.8c0-22.1-8.6-42.8-24.2-58.5-15.6-15.6-36.4-24.2-58.5-24.2H657.8z m0 255.1c-14.7 0-26.7-12-26.7-26.7v-145.8c0-14.7 12-26.7 26.7-26.7h218.7c14.7 0 26.7 12 26.7 26.7V274.7c0 14.7-12 26.7-26.7 26.7H657.8zM256.9 192c-14.7 0-26.7-12-26.7-26.7s12-26.7 26.7-26.7 26.7 12 26.7 26.7-12 26.7-26.7 26.7zM147.5 738.7c-14.7 0-26.7-12-26.7-26.7v-145.8c0-14.7 12-26.7 26.7-26.7h218.7c14.7 0 26.7 12 26.7 26.7V712c0 7.1-2.8 13.8-7.8 18.9-5 5-11.7 7.8-18.9 7.8H147.5z m619.6-36.5c-14.7 0-26.7-12-26.7-26.7s12-26.7 26.7-26.7c9.5 0 18.3 5.1 23.1 13.3 4.7 8.2 4.7 18.4 0 26.7s-13.6 13.4-23.1 13.4z"  horiz-adv-x="1024" />

    
    <glyph glyph-name="topicon" unicode="&#58890;" d="M1232.117443-109.50059099999999H595.374376c-17.013483 0-30.804652 13.792373-30.804652 30.805856 0 17.012279 13.791169 30.804652 30.804652 30.804652h628.0551V814.654622h-619.368337v-762.798659c0-17.012279-13.791169-30.804652-30.804652-30.804652-17.012279 0-30.804652 13.792373-30.804652 30.804652V821.800068c0 30.065302 23.717005 54.463858 52.922541 54.463858h636.743067c29.20072 0 52.921337-24.398556 52.921337-54.463858v-876.774186a53.712466 53.712466 0 0 0-15.165108-38.227053 53.725712 53.725712 0 0 0-37.756229-16.29942z m0 0M573.068639-109.50059099999999h-108.246165c-26.0639 0-45.777095 23.721822-45.777095 55.141796V621.321775c0 31.421179 19.651783 55.141796 45.777095 55.141796h24.275733c17.013483 0 30.804652-13.795985 30.804652-30.809469 0-17.012279-13.791169-30.804652-30.804652-30.804652h-8.194264l-0.24926-662.739533h92.413956c17.013483 0 30.809469-13.792373 30.809469-30.804652 0-17.013483-13.795985-30.805856-30.809469-30.805856z m510.138379 522.391843H744.345009c-33.946288 0-61.609304 27.666628-61.609304 61.614121v92.413956c0 33.946288 27.663016 61.609304 61.609304 61.609304h338.862009c34.0077 0 61.609304-27.663016 61.609304-61.609304v-92.413956c0-33.947492-27.601604-61.614121-61.609304-61.614121z m0 61.614121v-30.804652 30.804652z m-338.922217 92.413956v-92.413956h338.855989l0.066228 92.413956H744.284801z m354.199311-306.758076H728.823472c-17.013483 0-30.804652 13.791169-30.804652 30.804652s13.791169 30.804652 30.804652 30.804652h369.66064c17.013483 0 30.804652-13.791169 30.804652-30.804652s-13.791169-30.804652-30.804652-30.804652z m0-123.218608H728.823472c-17.013483 0-30.804652 13.791169-30.804652 30.804652 0 17.013483 13.791169 30.804652 30.804652 30.804652h369.66064c17.013483 0 30.804652-13.791169 30.804652-30.804652 0-17.013483-13.791169-30.804652-30.804652-30.804652z m0 0"  horiz-adv-x="1706" />

    
    <glyph glyph-name="zookeeper" unicode="&#59844;" d="M512-128C234.048-128 0 98.752 0 384 0 661.952 226.752 896 512 896c277.952 0 512-226.752 512-512 0-277.952-234.048-512-512-512z m0 936.224C277.952 808.224 87.776 618.048 87.776 384S277.952-40.224 512-40.224 936.224 149.952 936.224 384 746.048 808.224 512 808.224zM512 84.128c-168.224 0-299.872 131.648-299.872 299.872S343.776 683.872 512 683.872c168.224 0 299.872-131.648 299.872-299.872S680.224 84.128 512 84.128z m0 512c-117.024 0-212.128-95.072-212.128-212.128s95.072-212.128 212.128-212.128c117.024 0 212.128 95.072 212.128 212.128S629.056 596.128 512 596.128zM292.576 479.072c-7.328 0-14.624 0-21.952 7.328L95.072 603.424c-21.952 7.328-29.248 36.576-14.624 51.2 14.624 21.952 36.576 21.952 58.528 14.624l175.552-117.024c29.248-7.328 29.248-29.248 14.624-51.2a40.256 40.256 0 0 0-36.576-21.952zM906.976 91.424c-7.328 0-14.624 7.328-21.952 7.328l-175.552 117.024c-21.952 14.624-21.952 36.576-14.624 58.528 14.624 21.952 36.576 21.952 58.528 14.624l175.552-117.024c21.952-14.624 21.952-36.576 14.624-58.528-14.624-14.624-21.952-21.952-36.576-21.952zM117.024 91.424c-14.624 0-29.248 7.328-36.576 21.952-14.624 21.952-7.328 43.872 14.624 58.528l175.552 117.024c21.952 7.328 51.2 7.328 58.528-14.624 14.624-21.952 14.624-51.2-7.328-58.528l-175.552-117.024c-14.624-7.328-21.952-7.328-29.248-7.328zM731.424 479.072c-14.624 0-29.248 7.328-36.576 21.952-14.624 21.952-7.328 43.872 14.624 58.528l175.552 117.024c21.952 14.624 43.872 7.328 58.528-14.624s7.328-51.2-14.624-58.528L753.376 486.4c-14.624-7.328-21.952-7.328-21.952-7.328z"  horiz-adv-x="1024" />

    
    <glyph glyph-name="topic-copy" unicode="&#59845;" d="M1232.117443-109.50059099999999H595.374376c-17.013483 0-30.804652 13.792373-30.804652 30.805856 0 17.012279 13.791169 30.804652 30.804652 30.804652h628.0551V814.654622h-619.368337v-762.798659c0-17.012279-13.791169-30.804652-30.804652-30.804652-17.012279 0-30.804652 13.792373-30.804652 30.804652V821.800068c0 30.065302 23.717005 54.463858 52.922541 54.463858h636.743067c29.20072 0 52.921337-24.398556 52.921337-54.463858v-876.774186a53.712466 53.712466 0 0 0-15.165108-38.227053 53.725712 53.725712 0 0 0-37.756229-16.29942z m0 0M573.068639-109.50059099999999h-108.246165c-26.0639 0-45.777095 23.721822-45.777095 55.141796V621.321775c0 31.421179 19.651783 55.141796 45.777095 55.141796h24.275733c17.013483 0 30.804652-13.795985 30.804652-30.809469 0-17.012279-13.791169-30.804652-30.804652-30.804652h-8.194264l-0.24926-662.739533h92.413956c17.013483 0 30.809469-13.792373 30.809469-30.804652 0-17.013483-13.795985-30.805856-30.809469-30.805856z m510.138379 522.391843H744.345009c-33.946288 0-61.609304 27.666628-61.609304 61.614121v92.413956c0 33.946288 27.663016 61.609304 61.609304 61.609304h338.862009c34.0077 0 61.609304-27.663016 61.609304-61.609304v-92.413956c0-33.947492-27.601604-61.614121-61.609304-61.614121z m0 61.614121v-30.804652 30.804652z m-338.922217 92.413956v-92.413956h338.855989l0.066228 92.413956H744.284801z m354.199311-306.758076H728.823472c-17.013483 0-30.804652 13.791169-30.804652 30.804652s13.791169 30.804652 30.804652 30.804652h369.66064c17.013483 0 30.804652-13.791169 30.804652-30.804652s-13.791169-30.804652-30.804652-30.804652z m0-123.218608H728.823472c-17.013483 0-30.804652 13.791169-30.804652 30.804652 0 17.013483 13.791169 30.804652 30.804652 30.804652h369.66064c17.013483 0 30.804652-13.791169 30.804652-30.804652 0-17.013483-13.791169-30.804652-30.804652-30.804652z m0 0"  horiz-adv-x="1706" />

    
    <glyph glyph-name="shousuo-" unicode="&#58888;" d="M346.902219-127.998702a236.296509 236.296509 0 0 0-167.092199 69.213397A236.301701 236.301701 0 0 0 110.596623 108.306893V659.694405C110.596623 790.201638 216.394986 896 346.902219 896h157.538362v-1023.998702H346.902219zM342.866502 372.186213a15.754745 15.754745 0 0 1 3.976005 11.816383 15.870274 15.870274 0 0 1-3.933169 11.854027l-129.618051 141.230637a13.267632 13.267632 0 0 1-19.851472 0 16.349263 16.349263 0 0 1 0-21.620749l120.593829-131.465213-120.593829-131.426271a16.381715 16.381715 0 0 1 0-21.662287 13.193641 13.193641 0 0 1 19.770991 0l129.655696 141.273473zM464.997252 384.001298a15.756043 15.756043 0 0 1-3.93966 11.813787l-129.573916 141.272175a13.271526 13.271526 0 0 1-19.851472 0 16.394696 16.394696 0 0 1 0-21.662287l120.599021-131.466511-120.634069-131.384733a16.424552 16.424552 0 0 1 0-21.662287c5.511629-5.907543 14.373592-5.907543 19.809933 0l129.690744 141.272175a15.840418 15.840418 0 0 1 3.899419 11.817681z"  horiz-adv-x="1024" />

    
    <glyph glyph-name="shousuo-1" unicode="&#58894;" d="M346.902219-127.998702a236.296509 236.296509 0 0 0-167.092199 69.213397A236.301701 236.301701 0 0 0 110.596623 108.306893V659.694405C110.596623 790.201638 216.394986 896 346.902219 896h157.538362v-1023.998702H346.902219z m94.287027 358.91274a13.191045 13.191045 0 0 1 19.770991 0 16.381715 16.381715 0 0 1 0 21.662287l-120.593829 131.426271L460.960237 515.466511a16.349263 16.349263 0 0 1 0 21.620749 13.266334 13.266334 0 0 1-19.851472 0l-129.616753-141.231935a15.865081 15.865081 0 0 1-3.93317-11.854027 15.748254 15.748254 0 0 1 3.976006-11.816383l129.654398-141.270877zM189.404098 384.001298a15.836524 15.836524 0 0 1 3.899419-11.816383l129.690744-141.272175c5.436341-5.907543 14.298304-5.907543 19.809933 0a16.424552 16.424552 0 0 1 0 21.662287l-120.63407 131.384733 120.599022 131.466511a16.394696 16.394696 0 0 1 0 21.662287 13.272824 13.272824 0 0 1-19.851472 0l-129.573917-141.272175a15.761235 15.761235 0 0 1-3.939659-11.815085z m0 0"  horiz-adv-x="1024" />

    


  </font>
</defs>
</svg>
